<?xml version="1.0" encoding="UTF-8" standalone="no"?><!DOCTYPE svg PUBLIC "-//W3C//DTD SVG 1.1//EN" "http://www.w3.org/Graphics/SVG/1.1/DTD/svg11.dtd"><svg width="100%" height="100%" viewBox="0 0 3300 3000" version="1.1" xmlns="http://www.w3.org/2000/svg" xmlns:xlink="http://www.w3.org/1999/xlink" xml:space="preserve" xmlns:serif="http://www.serif.com/" style="fill-rule:evenodd;clip-rule:evenodd;stroke-linejoin:round;stroke-miterlimit:2;"><g><path d="M2977.743,1051.852l-129.216,208.681l-129.696,208.971l244.571,9.434l244.58,9.395l-115.34,-218.091l-114.899,-218.391Z" style="fill:#126beb;fill-rule:nonzero;stroke:#0070f0;stroke-width:17.2px;"/><path d="M2811.63,1200.68c-0.892,-1.478 -2.034,-2.784 -3.186,-4.105c-25.378,-24.36 -54.237,-45.022 -85.683,-61.709c-8.006,-4.389 -17.164,-1.278 -20.516,6.75c-3.342,8.044 0.574,18.093 8.58,22.482c28.46,15.296 54.422,34.095 77.514,55.843c6.702,6.373 16.668,6.366 22.305,-0.227c4.597,-4.79 4.702,-12.876 0.986,-19.035Zm-173.253,-93.465c-2.48,-4.111 -6.535,-7.272 -11.183,-8.478c-32.861,-7.831 -66.14,-11 -98.591,-9.859c-8.656,0.414 -14.711,8.078 -13.414,17.313c1.297,9.235 9.234,16.48 17.89,16.066c29.642,-1.063 60.38,2.043 90.613,9.045c8.671,1.993 16.42,-3.481 17.664,-12.653c0.046,-4.039 -0.851,-7.908 -2.978,-11.434Zm-185.322,7.611c-4.255,-7.051 -12.428,-10.541 -19.403,-7.929c-18.579,6.401 -36.61,14.887 -53.076,24.822c-5.489,3.312 -11.047,7.065 -16.359,10.669c-5.052,3.447 -9.654,7.022 -14.269,10.605c-6.779,5.288 -7.307,15.645 -1.743,23.103c5.578,7.45 15.656,9.392 22.175,4.261c4.332,-3.433 8.688,-6.859 13.206,-9.984c4.792,-3.29 9.584,-6.581 14.539,-9.57c14.892,-8.985 31.186,-16.822 48.028,-22.574c7.941,-2.775 11.534,-12.168 8.063,-20.89c-0.093,-0.742 -0.622,-1.62 -1.161,-2.513Zm-145.589,108.302c-0.715,-1.186 -1.858,-2.491 -2.833,-3.52c-6.618,-6.822 -16.584,-6.816 -22.388,-0.499c-7.638,8.599 -15.364,17.671 -22.993,26.285c-11.859,13.981 -24.177,27.819 -36.672,41.365l10.423,13.747l12.781,11.126c13.015,-13.859 25.417,-28.147 37.549,-42.293c7.629,-8.614 15.081,-17.521 22.719,-26.12c5.2,-5.553 5.306,-13.639 1.414,-20.09Zm-127.823,132.424c-0.353,-0.585 -0.883,-1.463 -1.236,-2.048c-5.834,-7.317 -15.739,-8.943 -22.342,-3.362c-22.594,19.241 -47.028,37.197 -71.931,53.819c-7.132,4.703 -8.278,13.417 -3.313,22.853c5.221,8.065 14.955,10.613 22.101,5.902c25.92,-17.257 50.98,-35.969 74.605,-55.853c5.563,-4.953 6.546,-13.967 2.115,-21.311Zm-714.899,-1048.385c-4.077,-6.757 -11.975,-10.409 -19.13,-8.096c-8.113,2.49 -11.984,12.04 -8.675,20.465c10.552,28.101 16.299,59.502 17.886,93.416c0.6,9.257 7.739,16.972 16.668,17.598c8.75,0.33 15.353,-6.458 15.011,-15.873c-1.785,-37.799 -8.443,-73.061 -20.425,-104.709c-0.094,-0.744 -0.626,-1.626 -1.335,-2.8Zm-54.818,-85.56c-0.886,-1.469 -2.033,-2.782 -3.193,-4.086c-4.929,-4.641 -10.131,-9.117 -15.758,-13.739c-23.681,-18.577 -50.036,-31.53 -78.426,-38.449c-8.68,-1.977 -16.428,3.5 -17.576,12.21c-1.163,8.716 4.77,17.962 13.627,20.233c23.496,5.863 45.631,16.556 65.255,31.968c4.671,3.595 9.068,7.354 12.945,11.429c6.703,6.375 16.671,6.372 22.315,-0.24c4.411,-5.066 4.533,-13.156 0.811,-19.326Zm66.617,282.847c-2.305,-3.82 -5.732,-6.561 -9.859,-8.078c-8.514,-2.879 -16.864,2.159 -18.723,10.896c-1.338,7.219 -3.044,13.86 -4.559,20.787c-5.257,20.807 -12.17,43.015 -21.674,69.19c-2.912,8.169 1.461,18.356 9.536,22.302c8.074,3.944 17.324,0.367 20.236,-7.802c9.752,-27.529 16.749,-50.186 22.431,-72.052c1.871,-7.543 3.47,-14.919 5.164,-22.755c0.758,-4.066 -0.246,-8.67 -2.551,-12.49Zm550.804,951.811c-4.608,-7.637 -13.738,-10.948 -21.14,-7.28c-26.853,13.389 -54.836,25.464 -82.661,35.448c-7.941,2.775 -11.534,12.168 -7.887,21.182c3.308,8.421 12.796,13.533 21.001,10.577c29.051,-10.304 57.813,-22.85 85.698,-36.882c7.662,-3.825 9.955,-13.609 5.695,-21.876c-0.353,-0.585 -0.53,-0.878 -0.706,-1.17Zm-796.895,-1283.48c-3.723,-6.171 -10.664,-9.999 -17.393,-8.745c-29.339,5.68 -59.877,16.49 -90.285,31.631c-7.677,3.832 -9.96,13.625 -5.517,22.167c4.087,7.955 14.005,11.991 21.673,8.166c28.149,-14.181 55.718,-24.001 82.882,-29.17c8.385,-1.451 13.034,-10.269 10.779,-19.329c-0.626,-1.626 -1.252,-3.251 -2.139,-4.72Zm185.853,513.506c-1.773,-2.939 -4.326,-5.406 -7.496,-7.101c-8.077,-3.943 -17.238,-0.82 -20.409,7.505c-9.335,25.274 -21.06,58.398 -29.797,92.93c-2.295,8.599 2.857,18.316 11.543,21.49c8.425,3.334 17.139,-1.121 19.254,-10.013c8.403,-32.725 19.268,-63.731 28.768,-89.904c1.799,-4.692 0.974,-10.206 -1.862,-14.907Zm438.213,831.371c-3.725,-6.174 -10.66,-9.991 -17.39,-8.745c-31.537,6.197 -61.611,8.319 -89.358,6.622c-8.664,-0.779 -15.349,6.447 -15.19,15.571c0.421,8.966 7.749,16.977 16.415,17.755c30.02,1.922 62.9,-0.276 96.617,-6.99c8.213,-1.742 13.036,-10.281 10.78,-19.336c-0.36,-1.778 -0.991,-3.413 -1.874,-4.876Zm-787.376,-1264.775c-0.355,-0.588 -0.709,-1.175 -1.064,-1.763c-5.57,-7.461 -15.645,-9.396 -22.167,-4.26l-8.173,6.534c-23.638,19.875 -43.172,38.875 -60.429,58.106c-5.812,6.313 -4.944,16.609 1.671,23.44c6.616,6.83 16.59,6.825 22.14,0.67c16.128,-18.149 35.233,-36.088 57.827,-55.333l7.388,-6.062c6.176,-4.527 7.238,-13.986 2.806,-21.332Zm305.856,621.457c-2.66,-4.408 -7.147,-7.711 -12.316,-8.601c-8.582,-1.233 -16.232,4.985 -16.335,14.264c-1.05,33.1 1.323,67.738 7.027,103.175c1.297,9.235 9.754,16.166 18.235,15.459c8.472,-0.722 14.366,-8.668 12.798,-17.761c-5.419,-33.193 -7.513,-65.598 -6.443,-96.303c-0.205,-3.883 -1.194,-7.296 -2.967,-10.233Zm295.222,626.273c-1.774,-2.941 -4.333,-5.408 -7.759,-6.953c-10.445,-4.912 -20.648,-11.189 -30.055,-17.925c-14.695,-10.77 -28.713,-23.964 -42.399,-40.152c-6.09,-7.141 -16.077,-8.34 -22.238,-2.606c-6.17,5.718 -6.441,15.899 -0.165,23.348c15.798,18.505 31.583,33.447 48.911,46.22c11.269,8.048 23.137,15.315 35.249,21.217c8.082,3.944 17.331,0.38 20.236,-7.799c1.706,-5.44 0.878,-10.947 -1.779,-15.35Zm-264.354,-428.076c-3.892,-6.451 -11.358,-9.969 -18.174,-8.272c-8.289,2.208 -12.507,11.159 -9.728,19.899c9.783,30.976 21.931,62.919 36.813,97.623c3.748,8.575 13.319,13.217 21.078,10.132c7.768,-3.07 11.188,-12.757 7.448,-21.316c-14.438,-33.375 -26.056,-64.441 -35.645,-93.917c-0.454,-1.343 -0.9,-2.67 -1.792,-4.148Zm80.404,188.762c-4.608,-7.637 -13.734,-10.951 -20.877,-7.439c-7.667,3.828 -10.387,13.492 -5.949,22.029c11.55,22.685 23.447,44.762 35.342,66.84c4.532,8.102 8.971,16.638 13.494,24.725c4.617,7.652 14.273,11.844 21.762,7.724c7.491,-4.121 9.596,-14.212 5.074,-22.299c-4.532,-8.102 -9.055,-16.189 -13.318,-24.433c-11.719,-21.785 -23.439,-43.57 -34.812,-65.963c-0.177,-0.293 -0.539,-0.893 -0.715,-1.186Zm-537.808,-869.468c-1.419,-2.351 -3.36,-4.387 -5.822,-6.106c-7.651,-5.003 -17.082,-2.92 -21.308,4.84c-2.239,4.558 -4.655,8.821 -6.633,13.22c-10.754,22.923 -19.735,48.783 -27.718,79.25c-2.295,8.599 2.856,18.317 11.281,21.648c8.425,3.334 17.139,-1.121 19.432,-9.719c7.208,-28.799 15.855,-52.853 25.574,-73.948c2.155,-4.106 3.87,-8.348 6.203,-12.16c2.845,-5.325 2.182,-11.738 -1.009,-17.026Zm-52.608,184.448c-2.305,-3.82 -5.738,-6.558 -9.863,-8.078c-8.509,-2.882 -16.868,2.161 -18.546,11.19c-4.792,24.536 -10.256,52.682 -17.828,79.695c-1.278,4.379 -2.556,8.756 -3.833,13.135c-2.734,8.462 2.157,18.337 10.32,21.829c8.34,3.784 17.231,-0.377 19.702,-8.683c1.539,-4.535 2.639,-9.207 4.001,-14.036c7.742,-27.918 13.372,-56.967 18.072,-82.247c1.279,-4.378 0.28,-8.986 -2.025,-12.805Zm-57.349,182.497c-1.418,-2.349 -3.536,-4.679 -5.822,-6.106c-7.651,-5.003 -17.344,-2.762 -21.308,4.84c-13.87,27.208 -30.027,52.987 -48.207,77.183c-5.196,6.743 -3.45,17.312 3.511,23.533c6.96,6.222 16.84,5.47 22.036,-1.273c19.132,-25.571 36.239,-52.726 50.621,-81.446c3.024,-5.029 2.359,-11.443 -0.832,-16.732Zm-110.809,148.223c-0.531,-0.881 -1.064,-1.763 -1.856,-2.486c-6.093,-7.146 -16.075,-8.336 -22.502,-2.455c-21.624,20.262 -45.273,38.939 -70.077,55.109c-7.137,4.707 -8.377,13.871 -3.32,22.845c5.225,8.068 14.956,10.615 22.093,5.907c26.112,-16.957 50.887,-36.717 73.901,-58.219c5.122,-5.094 5.839,-13.944 1.762,-20.702Zm-410.424,-580.406c-0.355,-0.588 -0.531,-0.881 -0.886,-1.469c-5.571,-7.46 -15.563,-9.847 -22.084,-4.711c-18.088,13.72 -31.316,22.504 -42.893,29.888c-11.138,7.523 -20.888,13.807 -32.016,22.525c-6.521,5.138 -7.313,15.636 -1.742,23.095c5.57,7.461 15.646,9.398 22.168,4.261c10.344,-8.247 19.832,-14.373 30.365,-21.128c11.921,-7.995 25.672,-17.095 44.283,-31.13c6.092,-4.075 7.416,-13.692 2.806,-21.332Zm257.414,679.944c-4.432,-7.346 -12.856,-10.678 -20.357,-7.756c-27.642,11.469 -56.265,20.722 -85.259,26.996c-8.21,1.747 -12.865,10.568 -10.344,19.468c2.258,9.058 11.402,14.762 19.611,13.016c30.656,-6.474 60.939,-15.928 90.148,-28.342c7.762,-3.081 10.746,-12.898 7.003,-21.462c0.084,-0.452 -0.447,-1.332 -0.802,-1.921Zm-398.397,-564.015c-0.886,-1.469 -2.211,-3.074 -3.621,-4.229c-6.96,-6.219 -16.755,-5.921 -22.128,0.528c-19.404,24.532 -33.244,55.329 -41.003,92.074c-1.856,8.735 3.556,18.295 12.065,21.177c8.509,2.882 17.044,-1.869 18.9,-10.604c6.919,-32.231 18.606,-58.921 35.238,-79.779c4.422,-5.073 4.273,-12.997 0.549,-19.168Zm218.788,585.816c-1.95,-3.232 -4.944,-5.833 -8.369,-7.375c-5.354,-2.379 -12.026,-5.168 -19.134,-8.093c-18.083,-7.526 -55.298,-23.145 -61.997,-29.524c-6.7,-6.379 -17.559,-7.843 -23.37,-1.53c-5.55,6.155 -5.736,15.885 0.702,22.422l10.233,-11.385l-8.031,13.263c10.758,10.743 37.358,22.348 73.52,37.4c6.847,3.083 13.341,5.578 18.696,7.958c8.341,3.783 17.232,-0.378 19.702,-8.683c1.363,-4.83 0.708,-10.046 -1.952,-14.454Zm-262.124,-401.353c-3.191,-5.289 -8.555,-8.865 -14.592,-8.83c-8.574,-0.037 -15.075,7.494 -14.216,16.594c3.259,36.109 11.679,71.911 24.528,103.836c3.481,8.722 12.792,13.524 20.732,10.737c7.938,-2.786 11.538,-12.173 8.059,-20.893c-11.6,-28.672 -19.03,-61.064 -21.823,-93.445c-0.195,-2.688 -1.27,-5.648 -2.689,-7.999Zm58.479,193.17c-3.014,-4.995 -8.202,-8.278 -13.892,-8.852c-8.751,-0.331 -15.347,6.454 -15.01,15.87c0.728,14.791 2.961,31.48 19.094,58.219c7.446,12.34 17.616,26.243 30.867,42.297c5.83,7.302 15.991,8.787 22.417,2.905c6.167,-5.724 6.697,-16.065 0.427,-23.504c-11.925,-14.447 -20.947,-27.039 -27.329,-37.616c-11.702,-19.393 -13.008,-29.826 -13.532,-40.733c-0.374,-2.981 -1.446,-5.94 -3.042,-8.585Z" style="fill:#0070f0;fill-rule:nonzero;stroke:#0070f0;stroke-width:29.7px;"/></g></svg>