<svg xmlns="http://www.w3.org/2000/svg" viewBox="0 0 295.05 80.05"><defs><style>.cls-1{fill:#54e700;}.cls-1,.cls-2,.cls-3{fill-rule:evenodd;}.cls-2{fill:#f6f500;}.cls-3{fill:red;}.cls-4{fill:#fff;}</style></defs><g id="Layer_2" data-name="Layer 2"><g id="Layer_1-2" data-name="Layer 1"><path class="cls-1" d="M80.4,40A40.2,40.2,0,0,1,0,40a40.2,40.2,0,0,1,80.4,0"/><path class="cls-2" d="M65.17,40A25.15,25.15,0,1,1,40,14.88,25.24,25.24,0,0,1,65.17,40"/><path class="cls-3" d="M55.25,40A15.34,15.34,0,0,1,40,55.25a15.23,15.23,0,0,1,0-30.46A15.35,15.35,0,0,1,55.25,40"/><path class="cls-4" d="M97,40.91a26.51,26.51,0,0,1-7.43-1,17.46,17.46,0,0,1-5.73-2.69l2.53-5.61A17.78,17.78,0,0,0,91.27,34a18.17,18.17,0,0,0,5.75.94,11.34,11.34,0,0,0,3.57-.46,4.43,4.43,0,0,0,2-1.21,2.67,2.67,0,0,0,.64-1.78,2.43,2.43,0,0,0-1-2,8.21,8.21,0,0,0-2.69-1.24c-1.12-.33-2.34-.63-3.66-.92s-2.64-.65-4-1.06a16.4,16.4,0,0,1-3.68-1.66,7.78,7.78,0,0,1-2.67-2.71,8.17,8.17,0,0,1-1-4.21,9,9,0,0,1,1.48-5A10,10,0,0,1,90.51,9a18.37,18.37,0,0,1,7.57-1.36,24.89,24.89,0,0,1,6,.74,17.85,17.85,0,0,1,5.18,2.11l-2.35,5.61a19.35,19.35,0,0,0-4.46-1.86A17.11,17.11,0,0,0,98,13.59a10.71,10.71,0,0,0-3.54.48,4.14,4.14,0,0,0-1.95,1.31,3,3,0,0,0-.63,1.84,2.48,2.48,0,0,0,1,2.07,7.22,7.22,0,0,0,2.66,1.22c1.11.3,2.33.59,3.68.88a40.23,40.23,0,0,1,4,1.08,17.89,17.89,0,0,1,3.63,1.63,7.9,7.9,0,0,1,2.69,2.67,7.8,7.8,0,0,1,1,4.16,8.78,8.78,0,0,1-1.5,5,10.47,10.47,0,0,1-4.53,3.63A18.32,18.32,0,0,1,97,40.91Z"/><path class="cls-4" d="M125.68,40.73a12.12,12.12,0,0,1-5.52-1.2,8.39,8.39,0,0,1-3.73-3.68,13.09,13.09,0,0,1-1.33-6.25v-14h7.17V28.49a6.7,6.7,0,0,0,1.31,4.58,4.74,4.74,0,0,0,3.71,1.45,5.74,5.74,0,0,0,2.94-.74,5.21,5.21,0,0,0,2.05-2.2A8.06,8.06,0,0,0,133,27.9V15.61h7.13V40.36h-6.81V33.51l1.24,2a8.73,8.73,0,0,1-3.68,3.89A10.75,10.75,0,0,1,125.68,40.73Z"/><path class="cls-4" d="M146.84,40.36V15.61h6.85v7l-1-2.07a7.91,7.91,0,0,1,3.54-4,12.06,12.06,0,0,1,5.93-1.35v6.67a7.9,7.9,0,0,0-.8-.14,7.41,7.41,0,0,0-5.59,1.65q-1.8,1.71-1.8,5.25V40.36Z"/><path class="cls-4" d="M174.12,40.36l-10.4-24.75h7.36l8.65,21.3h-3.68l9-21.3h6.86L181.48,40.36Z"/><path class="cls-4" d="M206.45,40.73a15.68,15.68,0,0,1-7.4-1.66,12.22,12.22,0,0,1-4.93-4.53A12.38,12.38,0,0,1,192.38,28a12.88,12.88,0,0,1,1.68-6.58,11.82,11.82,0,0,1,4.69-4.53,14,14,0,0,1,6.78-1.63,13.73,13.73,0,0,1,6.56,1.56,11.76,11.76,0,0,1,4.62,4.42,13.06,13.06,0,0,1,1.7,6.85c0,.28,0,.59,0,.94s-.06.69-.1,1h-20.1V25.83H214.5l-2.8,1.24a6.57,6.57,0,0,0-.74-3.36,5.72,5.72,0,0,0-2.16-2.23,6.24,6.24,0,0,0-3.22-.81,6.34,6.34,0,0,0-3.24.81,5.64,5.64,0,0,0-2.19,2.25,7.15,7.15,0,0,0-.78,3.43v1.1a6.82,6.82,0,0,0,.92,3.59,6.06,6.06,0,0,0,2.53,2.33,8.63,8.63,0,0,0,3.86.8,9.17,9.17,0,0,0,3.43-.6,8.42,8.42,0,0,0,2.74-1.79l3.81,4.14a11.1,11.1,0,0,1-4.27,3A15.87,15.87,0,0,1,206.45,40.73Z"/><path class="cls-4" d="M225.86,49.65a12.72,12.72,0,0,1-3.77-.59A8.87,8.87,0,0,1,219,47.4l2.63-5.15a5.55,5.55,0,0,0,1.91,1.19,6,6,0,0,0,2.18.42,3.74,3.74,0,0,0,2.37-.71,6.24,6.24,0,0,0,1.63-2.37l1.29-3,.55-.78,8.93-21.35h6.85L236.12,41.88a15.45,15.45,0,0,1-2.73,4.72A8.88,8.88,0,0,1,230,49,11.75,11.75,0,0,1,225.86,49.65Zm4.24-8.32-11-25.72h7.36l8.6,20.75Z"/><path class="cls-4" d="M261.28,40.73a14.3,14.3,0,0,1-7-1.66A12.23,12.23,0,0,1,247.76,28a12.38,12.38,0,0,1,1.75-6.6,12.23,12.23,0,0,1,4.81-4.51,14.51,14.51,0,0,1,7-1.63,14.77,14.77,0,0,1,7,1.63,12.15,12.15,0,0,1,4.83,4.51A12.38,12.38,0,0,1,274.9,28a12.11,12.11,0,0,1-6.58,11.08A14.56,14.56,0,0,1,261.28,40.73Zm0-5.89a6.5,6.5,0,0,0,3.25-.8,6,6,0,0,0,2.25-2.37,7.55,7.55,0,0,0,.85-3.68,7.39,7.39,0,0,0-.85-3.68A6,6,0,0,0,264.53,22a6.29,6.29,0,0,0-3.2-.81,6.39,6.39,0,0,0-3.22.81,5.92,5.92,0,0,0-2.28,2.32A7.5,7.5,0,0,0,255,28a7.66,7.66,0,0,0,.85,3.68A5.92,5.92,0,0,0,258.11,34,6.41,6.41,0,0,0,261.28,34.84Z"/><path class="cls-4" d="M279.68,40.36V15.61h6.86v7l-1-2.07a8,8,0,0,1,3.54-4,12.13,12.13,0,0,1,5.94-1.35v6.67c-.28-.06-.55-.11-.81-.14a6.61,6.61,0,0,0-.76-.05,6.76,6.76,0,0,0-4.83,1.7q-1.78,1.71-1.79,5.25V40.36Z"/><path class="cls-4" d="M100.15,55.16a3.29,3.29,0,0,0-1.74-2.51,7.67,7.67,0,0,0-3.87-.89,8.29,8.29,0,0,0-2.88.45,4.49,4.49,0,0,0-1.89,1.22,2.67,2.67,0,0,0-.66,1.77,2.32,2.32,0,0,0,.45,1.43,3.78,3.78,0,0,0,1.21,1,9.13,9.13,0,0,0,1.6.67c.58.18,1.13.32,1.66.44l2.64.59a21.7,21.7,0,0,1,2.66.74,11.6,11.6,0,0,1,2.53,1.22,6.31,6.31,0,0,1,1.89,1.89,4.89,4.89,0,0,1,.72,2.69,5.58,5.58,0,0,1-1.19,3.51,7.78,7.78,0,0,1-3.42,2.42,14.58,14.58,0,0,1-5.42.89,15.14,15.14,0,0,1-5.27-.83,8,8,0,0,1-3.48-2.36,6.24,6.24,0,0,1-1.39-3.63h4.11a3.27,3.27,0,0,0,1,2.1,5,5,0,0,0,2.15,1.24,9.8,9.8,0,0,0,2.89.4,9.46,9.46,0,0,0,3.09-.47,5,5,0,0,0,2.14-1.32,2.81,2.81,0,0,0,.78-2,2.24,2.24,0,0,0-.68-1.69,5.35,5.35,0,0,0-1.84-1.1,21.67,21.67,0,0,0-2.61-.76l-3.21-.75a13.07,13.07,0,0,1-5.15-2.24,4.7,4.7,0,0,1-1.9-3.9,5.31,5.31,0,0,1,1.27-3.52,8.39,8.39,0,0,1,3.44-2.33,13.5,13.5,0,0,1,4.9-.84,13.31,13.31,0,0,1,4.86.83,8.22,8.22,0,0,1,3.33,2.28,5.32,5.32,0,0,1,1.27,3.33Z"/><path class="cls-4" d="M118.52,54.86v2.73h-11.1V54.86Zm-8.13-4.18h4V67.19a2.59,2.59,0,0,0,.34,1.48,1.66,1.66,0,0,0,.9.67,3.76,3.76,0,0,0,1.19.18,5.17,5.17,0,0,0,.84-.06l.55-.09.72,2.81a9.84,9.84,0,0,1-1,.23,9.59,9.59,0,0,1-1.59.13,7.74,7.74,0,0,1-2.91-.48,4.8,4.8,0,0,1-2.18-1.54,4.06,4.06,0,0,1-.84-2.63Z"/><path class="cls-4" d="M131.23,72.67a10.56,10.56,0,0,1-5-1.13,8.08,8.08,0,0,1-3.3-3.15,9.14,9.14,0,0,1-1.18-4.72,9.25,9.25,0,0,1,1.18-4.75,8,8,0,0,1,3.3-3.16,11.58,11.58,0,0,1,10,0,8.13,8.13,0,0,1,3.31,3.16,9.35,9.35,0,0,1,1.17,4.75,9.23,9.23,0,0,1-1.17,4.72,8.17,8.17,0,0,1-3.31,3.15A10.53,10.53,0,0,1,131.23,72.67Zm0-2.86a5.27,5.27,0,0,0,3.07-.84,4.93,4.93,0,0,0,1.81-2.24,7.85,7.85,0,0,0,.59-3.07,7.94,7.94,0,0,0-.59-3.08,5,5,0,0,0-1.81-2.25,5.93,5.93,0,0,0-6.15,0,5,5,0,0,0-1.82,2.25,7.94,7.94,0,0,0-.59,3.08,7.85,7.85,0,0,0,.59,3.07A5,5,0,0,0,128.16,69,5.3,5.3,0,0,0,131.24,69.81Z"/><path class="cls-4" d="M145.11,72.31V54.86h3.82v2.77h.21a4.42,4.42,0,0,1,2-2.22,6.29,6.29,0,0,1,3.2-.81l.87,0,.8.06v3.25a8.09,8.09,0,0,0-.84-.13,10,10,0,0,0-1.22-.08,5.8,5.8,0,0,0-2.49.51,4.23,4.23,0,0,0-1.73,1.4,3.42,3.42,0,0,0-.63,2V72.31Z"/><path class="cls-4" d="M161.42,52.17a2.66,2.66,0,0,1-1.76-.6,1.75,1.75,0,0,1,0-2.86,2.66,2.66,0,0,1,1.76-.6,2.71,2.71,0,0,1,1.77.6,1.76,1.76,0,0,1,.73,1.42,1.8,1.8,0,0,1-.73,1.44A2.71,2.71,0,0,1,161.42,52.17Zm-2,20.14V54.86h4V72.31Z"/><path class="cls-4" d="M177.46,72.67a11.18,11.18,0,0,1-5.17-1.11A7.93,7.93,0,0,1,169,68.43a9.24,9.24,0,0,1-1.17-4.73A9.37,9.37,0,0,1,169,59a8.25,8.25,0,0,1,3.28-3.19,10.21,10.21,0,0,1,4.94-1.15,11.57,11.57,0,0,1,3.33.49,8.35,8.35,0,0,1,2.9,1.54,7.17,7.17,0,0,1,2,2.71,10,10,0,0,1,.74,4v1.2H170V62.06H182.3a4.39,4.39,0,0,0-2.42-4,5.65,5.65,0,0,0-2.67-.6,5.78,5.78,0,0,0-2.91.7A5,5,0,0,0,172.4,60a4.58,4.58,0,0,0-.67,2.42v2a5.79,5.79,0,0,0,.72,3,4.69,4.69,0,0,0,2,1.87,6.7,6.7,0,0,0,3,.64,7,7,0,0,0,2.05-.28,4.51,4.51,0,0,0,1.6-.83,3.71,3.71,0,0,0,1-1.38l3.74.58a5.57,5.57,0,0,1-1.6,2.48,8,8,0,0,1-2.9,1.65A12.4,12.4,0,0,1,177.46,72.67Z"/><path class="cls-4" d="M205.81,59.12l-3.59.55a3.4,3.4,0,0,0-2-2,5.29,5.29,0,0,0-2.05-.34,5.55,5.55,0,0,0-2.8.64,1.9,1.9,0,0,0-1.13,1.65A1.65,1.65,0,0,0,195,61a6.58,6.58,0,0,0,2.43.88l3.23.63a9.21,9.21,0,0,1,4.18,1.72,3.73,3.73,0,0,1,1.38,3,4.19,4.19,0,0,1-1.06,2.79A6.92,6.92,0,0,1,202.23,72a12.25,12.25,0,0,1-4.33.7,10.91,10.91,0,0,1-5.57-1.26,5.28,5.28,0,0,1-2.65-3.57l3.82-.5A3.13,3.13,0,0,0,195,69.27a5.63,5.63,0,0,0,2.9.66,6,6,0,0,0,3.11-.7,2,2,0,0,0,1.16-1.71,1.7,1.7,0,0,0-.7-1.38,5.22,5.22,0,0,0-2.17-.84l-3.44-.64a8.93,8.93,0,0,1-4.2-1.78,4.17,4.17,0,0,1-.35-5.78,6.6,6.6,0,0,1,2.78-1.81,11.6,11.6,0,0,1,4.06-.66,9.53,9.53,0,0,1,5.19,1.22A5.82,5.82,0,0,1,205.81,59.12Z"/></g></g></svg>